<?xml version="1.0" encoding="utf-8"?>
<!DOCTYPE svg PUBLIC "-//W3C//DTD SVG 1.1//EN" "http://www.w3.org/Graphics/SVG/1.1/DTD/svg11.dtd">
<!-- Generated by graphviz version 8.1.0 (20230707.0739)
 -->
<!-- Title: stones Pages: 1 -->
<svg height="886pt" viewBox="0.00 0.00 839.88 886.0" width="840pt" xmlns="http://www.w3.org/2000/svg" xmlns:xlink="http://www.w3.org/1999/xlink">
 <g class="graph" id="graph0" transform="scale(1 1) rotate(0) translate(4 832)">
  <title>
   stones
  </title>
  <polygon fill="white" points="-4,4 -4,-832 785.88,-832 785.88,4 -4,4" stroke="none"/>
  <!-- Codeforces -->
  <g class="node" id="node1">
   <title>
    Codeforces
   </title>
   <g id="a_node1">
    <a target="_parent" xlink:href="https://codeforces.com/problemset" xlink:title="Codeforces(14)">
     <polygon fill="orangered" points="464.12,-828 355.12,-828 355.12,-792 464.12,-792 464.12,-828" stroke="lightgrey"/>
     <text fill="white" font-family="Microsoft YaHei" font-size="14.00" text-anchor="middle" x="409.62" y="-804.2">
      Codeforces(14)
     </text>
    </a>
   </g>
  </g>
  <!-- 基础题 -->
  <g class="node" id="node2">
   <title>
    基础题
   </title>
   <polygon fill="lightslategray" points="184.12,-756 111.12,-756 111.12,-720 184.12,-720 184.12,-756" stroke="lightgrey"/>
   <text fill="white" font-family="Microsoft YaHei" font-size="12.00" text-anchor="middle" x="147.62" y="-735.23">
    基础题(10)
   </text>
  </g>
  <!-- Codeforces&#45;&gt;基础题 -->
  <g class="edge" id="edge1">
   <title>
    Codeforces-&gt;基础题
   </title>
   <path d="M354.7,-794.33C307.33,-781.67 239.65,-763.59 194.72,-751.58" fill="none" stroke="lightgrey"/>
   <polygon fill="lightgrey" points="195.93,-748.02 185.37,-748.82 194.13,-754.78 195.93,-748.02" stroke="lightgrey"/>
  </g>
  <!-- Maths -->
  <g class="node" id="node13">
   <title>
    Maths
   </title>
   <polygon fill="lightslategray" points="297.88,-756 235.38,-756 235.38,-720 297.88,-720 297.88,-756" stroke="lightgrey"/>
   <text fill="white" font-family="Microsoft YaHei" font-size="12.00" text-anchor="middle" x="266.62" y="-732.98">
    Maths(1)
   </text>
  </g>
  <!-- Codeforces&#45;&gt;Maths -->
  <g class="edge" id="edge12">
   <title>
    Codeforces-&gt;Maths
   </title>
   <path d="M373.91,-791.52C353.86,-781.7 328.76,-769.41 307.87,-759.19" fill="none" stroke="lightgrey"/>
   <polygon fill="lightgrey" points="309.52,-755.61 299,-754.36 306.44,-761.9 309.52,-755.61" stroke="lightgrey"/>
  </g>
  <!-- 数论&#45;扩展欧几里得算法 -->
  <g class="node" id="node15">
   <title>
    数论-扩展欧几里得算法
   </title>
   <polygon fill="lightslategray" points="486.62,-756 332.62,-756 332.62,-720 486.62,-720 486.62,-756" stroke="lightgrey"/>
   <text fill="white" font-family="Microsoft YaHei" font-size="12.00" text-anchor="middle" x="409.62" y="-735.23">
    数论-扩展欧几里得算法(1)
   </text>
  </g>
  <!-- Codeforces&#45;&gt;数论&#45;扩展欧几里得算法 -->
  <g class="edge" id="edge14">
   <title>
    Codeforces-&gt;数论-扩展欧几里得算法
   </title>
   <path d="M409.62,-791.7C409.62,-784.24 409.62,-775.32 409.62,-766.97" fill="none" stroke="lightgrey"/>
   <polygon fill="lightgrey" points="413.13,-767.1 409.62,-757.1 406.13,-767.1 413.13,-767.1" stroke="lightgrey"/>
  </g>
  <!-- 动态规划&#45;树形DP -->
  <g class="node" id="node17">
   <title>
    动态规划-树形DP
   </title>
   <polygon fill="lightslategray" points="628.25,-756 505,-756 505,-720 628.25,-720 628.25,-756" stroke="lightgrey"/>
   <text fill="white" font-family="Microsoft YaHei" font-size="12.00" text-anchor="middle" x="566.62" y="-735.23">
    动态规划-树形DP(1)
   </text>
  </g>
  <!-- Codeforces&#45;&gt;动态规划&#45;树形DP -->
  <g class="edge" id="edge16">
   <title>
    Codeforces-&gt;动态规划-树形DP
   </title>
   <path d="M448.84,-791.52C469.71,-782.21 495.57,-770.68 517.74,-760.79" fill="none" stroke="lightgrey"/>
   <polygon fill="lightgrey" points="518.93,-763.65 526.64,-756.38 516.08,-757.26 518.93,-763.65" stroke="lightgrey"/>
  </g>
  <!-- 模拟题 -->
  <g class="node" id="node19">
   <title>
    模拟题
   </title>
   <polygon fill="lightslategray" points="726.75,-756 660.5,-756 660.5,-720 726.75,-720 726.75,-756" stroke="lightgrey"/>
   <text fill="white" font-family="Microsoft YaHei" font-size="12.00" text-anchor="middle" x="693.62" y="-735.23">
    模拟题(1)
   </text>
  </g>
  <!-- Codeforces&#45;&gt;模拟题 -->
  <g class="edge" id="edge18">
   <title>
    Codeforces-&gt;模拟题
   </title>
   <path d="M464.24,-797.37C510.58,-787.25 578.74,-771.76 637.62,-756 641.65,-754.92 645.82,-753.75 649.99,-752.55" fill="none" stroke="lightgrey"/>
   <polygon fill="lightgrey" points="650.67,-755.71 659.27,-749.52 648.69,-748.99 650.67,-755.71" stroke="lightgrey"/>
  </g>
  <!-- 1A -->
  <g class="node" id="node3">
   <title>
    1A
   </title>
   <g id="a_node3">
    <a target="_parent" xlink:href="https://codeforces.com/problemset/problem/1/A" xlink:title="1A. Theatre Square">
     <polygon fill="none" points="157.75,-684 37.5,-684 37.5,-648 157.75,-648 157.75,-684" stroke="greenyellow"/>
     <text font-family="Microsoft YaHei" font-size="12.00" text-anchor="middle" x="97.62" y="-660.98">
      1A. Theatre Square
     </text>
    </a>
   </g>
   <g transform="translate(149.75, -690.0) scale(0.3)">
    <circle cx="24" cy="24" fill="#4caf50" r="21"/>
    <polygon fill="#ccff90" points="34.6,14.6 21,28.2 15.4,22.6 12.6,25.4 21,33.8 37.4,17.4"/>
   </g>
  </g>
  <!-- 基础题&#45;&gt;1A -->
  <g class="edge" id="edge2">
   <title>
    基础题-&gt;1A
   </title>
   <path d="M135.27,-719.7C129.51,-711.64 122.55,-701.89 116.18,-692.98" fill="none" stroke="lightgrey"/>
   <polygon fill="lightgrey" points="118.5,-691.21 109.84,-685.1 112.81,-695.28 118.5,-691.21" stroke="lightgrey"/>
  </g>
  <!-- 4A -->
  <g class="node" id="node4">
   <title>
    4A
   </title>
   <g id="a_node4">
    <a target="_parent" xlink:href="https://codeforces.com/problemset/problem/4/A" xlink:title="4A. Watermelon">
     <polygon fill="none" points="148.38,-612 46.88,-612 46.88,-576 148.38,-576 148.38,-612" stroke="greenyellow"/>
     <text font-family="Microsoft YaHei" font-size="12.00" text-anchor="middle" x="97.62" y="-588.98">
      4A. Watermelon
     </text>
    </a>
   </g>
   <g transform="translate(140.38, -618.0) scale(0.3)">
    <circle cx="24" cy="24" fill="#4caf50" r="21"/>
    <polygon fill="#ccff90" points="34.6,14.6 21,28.2 15.4,22.6 12.6,25.4 21,33.8 37.4,17.4"/>
   </g>
  </g>
  <!-- 1A&#45;&gt;4A -->
  <g class="edge" id="edge3">
   <title>
    1A-&gt;4A
   </title>
   <path d="M97.62,-647.7C97.62,-640.24 97.62,-631.32 97.62,-622.97" fill="none" stroke="lightgrey"/>
   <polygon fill="lightgrey" points="101.13,-623.1 97.62,-613.1 94.13,-623.1 101.13,-623.1" stroke="lightgrey"/>
  </g>
  <!-- 5A -->
  <g class="node" id="node5">
   <title>
    5A
   </title>
   <g id="a_node5">
    <a target="_parent" xlink:href="https://codeforces.com/problemset/problem/5/A" xlink:title="5A. Chat Servers Outgoing Traffic">
     <polygon fill="none" points="194.5,-540 0.75,-540 0.75,-504 194.5,-504 194.5,-540" stroke="greenyellow"/>
     <text font-family="Microsoft YaHei" font-size="12.00" text-anchor="middle" x="97.62" y="-516.98">
      5A. Chat Servers Outgoing Traffic
     </text>
    </a>
   </g>
   <g transform="translate(186.5, -546.0) scale(0.3)">
    <circle cx="24" cy="24" fill="#4caf50" r="21"/>
    <polygon fill="#ccff90" points="34.6,14.6 21,28.2 15.4,22.6 12.6,25.4 21,33.8 37.4,17.4"/>
   </g>
  </g>
  <!-- 4A&#45;&gt;5A -->
  <g class="edge" id="edge4">
   <title>
    4A-&gt;5A
   </title>
   <path d="M97.62,-575.7C97.62,-568.24 97.62,-559.32 97.62,-550.97" fill="none" stroke="lightgrey"/>
   <polygon fill="lightgrey" points="101.13,-551.1 97.62,-541.1 94.13,-551.1 101.13,-551.1" stroke="lightgrey"/>
  </g>
  <!-- 6A -->
  <g class="node" id="node6">
   <title>
    6A
   </title>
   <g id="a_node6">
    <a target="_parent" xlink:href="https://codeforces.com/problemset/problem/6/A" xlink:title="6A. Triangle">
     <polygon fill="none" points="137.88,-468 57.38,-468 57.38,-432 137.88,-432 137.88,-468" stroke="greenyellow"/>
     <text font-family="Microsoft YaHei" font-size="12.00" text-anchor="middle" x="97.62" y="-444.98">
      6A. Triangle
     </text>
    </a>
   </g>
   <g transform="translate(129.88, -474.0) scale(0.3)">
    <circle cx="24" cy="24" fill="#4caf50" r="21"/>
    <polygon fill="#ccff90" points="34.6,14.6 21,28.2 15.4,22.6 12.6,25.4 21,33.8 37.4,17.4"/>
   </g>
  </g>
  <!-- 5A&#45;&gt;6A -->
  <g class="edge" id="edge5">
   <title>
    5A-&gt;6A
   </title>
   <path d="M97.62,-503.7C97.62,-496.24 97.62,-487.32 97.62,-478.97" fill="none" stroke="lightgrey"/>
   <polygon fill="lightgrey" points="101.13,-479.1 97.62,-469.1 94.13,-479.1 101.13,-479.1" stroke="lightgrey"/>
  </g>
  <!-- 750A -->
  <g class="node" id="node7">
   <title>
    750A
   </title>
   <g id="a_node7">
    <a target="_parent" xlink:href="https://codeforces.com/problemset/problem/750/A" xlink:title="750A. New Year and Hurry">
     <polygon fill="none" points="176.5,-396 18.75,-396 18.75,-360 176.5,-360 176.5,-396" stroke="greenyellow"/>
     <text font-family="Microsoft YaHei" font-size="12.00" text-anchor="middle" x="97.62" y="-372.98">
      750A. New Year and Hurry
     </text>
    </a>
   </g>
   <g transform="translate(168.5, -402.0) scale(0.3)">
    <circle cx="24" cy="24" fill="#4caf50" r="21"/>
    <polygon fill="#ccff90" points="34.6,14.6 21,28.2 15.4,22.6 12.6,25.4 21,33.8 37.4,17.4"/>
   </g>
  </g>
  <!-- 6A&#45;&gt;750A -->
  <g class="edge" id="edge6">
   <title>
    6A-&gt;750A
   </title>
   <path d="M97.62,-431.7C97.62,-424.24 97.62,-415.32 97.62,-406.97" fill="none" stroke="lightgrey"/>
   <polygon fill="lightgrey" points="101.13,-407.1 97.62,-397.1 94.13,-407.1 101.13,-407.1" stroke="lightgrey"/>
  </g>
  <!-- 784E -->
  <g class="node" id="node8">
   <title>
    784E
   </title>
   <g id="a_node8">
    <a target="_parent" xlink:href="https://codeforces.com/problemset/problem/784/E" xlink:title="784E. Twisted Circuit">
     <polygon fill="none" points="161.88,-324 33.38,-324 33.38,-288 161.88,-288 161.88,-324" stroke="orange"/>
     <text font-family="Microsoft YaHei" font-size="12.00" text-anchor="middle" x="97.62" y="-300.98">
      784E. Twisted Circuit
     </text>
    </a>
   </g>
   <g transform="translate(153.88, -330.0) scale(0.3)">
    <circle cx="24" cy="24" fill="#4caf50" r="21"/>
    <polygon fill="#ccff90" points="34.6,14.6 21,28.2 15.4,22.6 12.6,25.4 21,33.8 37.4,17.4"/>
   </g>
  </g>
  <!-- 750A&#45;&gt;784E -->
  <g class="edge" id="edge7">
   <title>
    750A-&gt;784E
   </title>
   <path d="M97.62,-359.7C97.62,-352.24 97.62,-343.32 97.62,-334.97" fill="none" stroke="lightgrey"/>
   <polygon fill="lightgrey" points="101.13,-335.1 97.62,-325.1 94.13,-335.1 101.13,-335.1" stroke="lightgrey"/>
  </g>
  <!-- 785A -->
  <g class="node" id="node9">
   <title>
    785A
   </title>
   <g id="a_node9">
    <a target="_parent" xlink:href="https://codeforces.com/problemset/problem/785/A" xlink:title="785A. Anton and Polyhedrons">
     <polygon fill="none" points="185.12,-252 10.12,-252 10.12,-216 185.12,-216 185.12,-252" stroke="greenyellow"/>
     <text font-family="Microsoft YaHei" font-size="12.00" text-anchor="middle" x="97.62" y="-228.97">
      785A. Anton and Polyhedrons
     </text>
    </a>
   </g>
   <g transform="translate(177.12, -258.0) scale(0.3)">
    <circle cx="24" cy="24" fill="#4caf50" r="21"/>
    <polygon fill="#ccff90" points="34.6,14.6 21,28.2 15.4,22.6 12.6,25.4 21,33.8 37.4,17.4"/>
   </g>
  </g>
  <!-- 784E&#45;&gt;785A -->
  <g class="edge" id="edge8">
   <title>
    784E-&gt;785A
   </title>
   <path d="M97.62,-287.7C97.62,-280.24 97.62,-271.32 97.62,-262.97" fill="none" stroke="lightgrey"/>
   <polygon fill="lightgrey" points="101.13,-263.1 97.62,-253.1 94.13,-263.1 101.13,-263.1" stroke="lightgrey"/>
  </g>
  <!-- 802M -->
  <g class="node" id="node10">
   <title>
    802M
   </title>
   <g id="a_node10">
    <a target="_parent" xlink:href="https://codeforces.com/problemset/problem/802/M" xlink:title="802M. April Fools' Problem (easy)">
     <polygon fill="none" points="195.25,-180 0,-180 0,-144 195.25,-144 195.25,-180" stroke="orange"/>
     <text font-family="Microsoft YaHei" font-size="12.00" text-anchor="middle" x="97.62" y="-156.97">
      802M. April Fools' Problem (easy)
     </text>
    </a>
   </g>
   <g transform="translate(187.25, -186.0) scale(0.3)">
    <circle cx="24" cy="24" fill="#4caf50" r="21"/>
    <polygon fill="#ccff90" points="34.6,14.6 21,28.2 15.4,22.6 12.6,25.4 21,33.8 37.4,17.4"/>
   </g>
  </g>
  <!-- 785A&#45;&gt;802M -->
  <g class="edge" id="edge9">
   <title>
    785A-&gt;802M
   </title>
   <path d="M97.62,-215.7C97.62,-208.24 97.62,-199.32 97.62,-190.97" fill="none" stroke="lightgrey"/>
   <polygon fill="lightgrey" points="101.13,-191.1 97.62,-181.1 94.13,-191.1 101.13,-191.1" stroke="lightgrey"/>
  </g>
  <!-- 855A -->
  <g class="node" id="node11">
   <title>
    855A
   </title>
   <g id="a_node11">
    <a target="_parent" xlink:href="https://codeforces.com/problemset/problem/855/A" xlink:title="855A. Tom Riddle's Diary">
     <polygon fill="none" points="173.12,-108 22.12,-108 22.12,-72 173.12,-72 173.12,-108" stroke="greenyellow"/>
     <text font-family="Microsoft YaHei" font-size="12.00" text-anchor="middle" x="97.62" y="-84.97">
      855A. Tom Riddle's Diary
     </text>
    </a>
   </g>
   <g transform="translate(165.12, -114.0) scale(0.3)">
    <circle cx="24" cy="24" fill="#4caf50" r="21"/>
    <polygon fill="#ccff90" points="34.6,14.6 21,28.2 15.4,22.6 12.6,25.4 21,33.8 37.4,17.4"/>
   </g>
  </g>
  <!-- 802M&#45;&gt;855A -->
  <g class="edge" id="edge10">
   <title>
    802M-&gt;855A
   </title>
   <path d="M97.62,-143.7C97.62,-136.24 97.62,-127.32 97.62,-118.97" fill="none" stroke="lightgrey"/>
   <polygon fill="lightgrey" points="101.13,-119.1 97.62,-109.1 94.13,-119.1 101.13,-119.1" stroke="lightgrey"/>
  </g>
  <!-- 1157B -->
  <g class="node" id="node12">
   <title>
    1157B
   </title>
   <g id="a_node12">
    <a target="_parent" xlink:href="https://codeforces.com/problemset/problem/1157/B" xlink:title="1157B. Long Number">
     <polygon fill="none" points="161.88,-36 33.38,-36 33.38,0 161.88,0 161.88,-36" stroke="orange"/>
     <text font-family="Microsoft YaHei" font-size="12.00" text-anchor="middle" x="97.62" y="-12.97">
      1157B. Long Number
     </text>
    </a>
   </g>
   <g transform="translate(153.88, -42.0) scale(0.3)">
    <circle cx="24" cy="24" fill="#4caf50" r="21"/>
    <polygon fill="#ccff90" points="34.6,14.6 21,28.2 15.4,22.6 12.6,25.4 21,33.8 37.4,17.4"/>
   </g>
  </g>
  <!-- 855A&#45;&gt;1157B -->
  <g class="edge" id="edge11">
   <title>
    855A-&gt;1157B
   </title>
   <path d="M97.62,-71.7C97.62,-64.24 97.62,-55.32 97.62,-46.97" fill="none" stroke="lightgrey"/>
   <polygon fill="lightgrey" points="101.13,-47.1 97.62,-37.1 94.13,-47.1 101.13,-47.1" stroke="lightgrey"/>
  </g>
  <!-- 409H -->
  <g class="node" id="node14">
   <title>
    409H
   </title>
   <g id="a_node14">
    <a target="_parent" xlink:href="https://codeforces.com/problemset/problem/409/H" xlink:title="409H. A + B Strikes Back">
     <polygon fill="none" points="325.38,-684 175.88,-684 175.88,-648 325.38,-648 325.38,-684" stroke="orange"/>
     <text font-family="Microsoft YaHei" font-size="12.00" text-anchor="middle" x="250.62" y="-660.98">
      409H. A + B Strikes Back
     </text>
    </a>
   </g>
   <g transform="translate(317.38, -690.0) scale(0.3)">
    <circle cx="24" cy="24" fill="#4caf50" r="21"/>
    <polygon fill="#ccff90" points="34.6,14.6 21,28.2 15.4,22.6 12.6,25.4 21,33.8 37.4,17.4"/>
   </g>
  </g>
  <!-- Maths&#45;&gt;409H -->
  <g class="edge" id="edge13">
   <title>
    Maths-&gt;409H
   </title>
   <path d="M262.67,-719.7C260.95,-712.15 258.88,-703.12 256.95,-694.68" fill="none" stroke="lightgrey"/>
   <polygon fill="lightgrey" points="260.17,-694.07 254.53,-685.1 253.35,-695.63 260.17,-694.07" stroke="lightgrey"/>
  </g>
  <!-- 1478D -->
  <g class="node" id="node16">
   <title>
    1478D
   </title>
   <g id="a_node16">
    <a target="_parent" xlink:href="https://codeforces.com/problemset/problem/1477/A" xlink:title="1478D. Nezzar and Board">
     <polygon fill="none" points="498,-684 343.25,-684 343.25,-648 498,-648 498,-684" stroke="orange"/>
     <text font-family="Microsoft YaHei" font-size="12.00" text-anchor="middle" x="420.62" y="-660.98">
      1478D. Nezzar and Board
     </text>
    </a>
   </g>
  </g>
  <!-- 数论&#45;扩展欧几里得算法&#45;&gt;1478D -->
  <g class="edge" id="edge15">
   <title>
    数论-扩展欧几里得算法-&gt;1478D
   </title>
   <path d="M412.34,-719.7C413.52,-712.24 414.92,-703.32 416.23,-694.97" fill="none" stroke="lightgrey"/>
   <polygon fill="lightgrey" points="419.84,-695.53 417.94,-685.1 412.93,-694.44 419.84,-695.53" stroke="lightgrey"/>
  </g>
  <!-- 1156D -->
  <g class="node" id="node18">
   <title>
    1156D
   </title>
   <g id="a_node18">
    <a target="_parent" xlink:href="https://codeforces.com/problemset/problem/1156/D" xlink:title="1156D. 0-1-Tree">
     <polygon fill="none" points="617.38,-684 515.88,-684 515.88,-648 617.38,-648 617.38,-684" stroke="red"/>
     <text font-family="Microsoft YaHei" font-size="12.00" text-anchor="middle" x="566.62" y="-660.98">
      1156D. 0-1-Tree
     </text>
    </a>
   </g>
  </g>
  <!-- 动态规划&#45;树形DP&#45;&gt;1156D -->
  <g class="edge" id="edge17">
   <title>
    动态规划-树形DP-&gt;1156D
   </title>
   <path d="M566.62,-719.7C566.62,-712.24 566.62,-703.32 566.62,-694.97" fill="none" stroke="lightgrey"/>
   <polygon fill="lightgrey" points="570.13,-695.1 566.62,-685.1 563.13,-695.1 570.13,-695.1" stroke="lightgrey"/>
  </g>
  <!-- 1493B -->
  <g class="node" id="node20">
   <title>
    1493B
   </title>
   <g id="a_node20">
    <a target="_parent" xlink:href="https://codeforces.com/problemset/problem/1493/B" xlink:title="1493B. Planet Lapituletti">
     <polygon fill="none" points="781.88,-684 635.38,-684 635.38,-648 781.88,-648 781.88,-684" stroke="orange"/>
     <text font-family="Microsoft YaHei" font-size="12.00" text-anchor="middle" x="708.62" y="-660.98">
      1493B. Planet Lapituletti
     </text>
    </a>
   </g>
  </g>
  <!-- 模拟题&#45;&gt;1493B -->
  <g class="edge" id="edge19">
   <title>
    模拟题-&gt;1493B
   </title>
   <path d="M697.33,-719.7C698.95,-712.15 700.89,-703.12 702.69,-694.68" fill="none" stroke="lightgrey"/>
   <polygon fill="lightgrey" points="706.29,-695.62 704.96,-685.1 699.44,-694.15 706.29,-695.62" stroke="lightgrey"/>
  </g>
  <g class="key">
   <defs>
    <filter height="1.2" id="solid" width="1.2" x="-0.1" y="-0.1">
     <feFlood flood-color="#ccff90" result="bg"/>
     <feMerge>
      <feMergeNode in="bg"/>
      <feMergeNode in="SourceGraphic"/>
     </feMerge>
    </filter>
   </defs>
   <text filter="url(#solid)" font-family="Microsoft YaHei" font-size="10.00" text-anchor="middle" x="708.63" y="-643.0">
    时间模拟
   </text>
  </g>
 </g>
</svg>
