<?xml version="1.0" encoding="utf-8"?>
<!DOCTYPE svg PUBLIC "-//W3C//DTD SVG 1.1//EN" "http://www.w3.org/Graphics/SVG/1.1/DTD/svg11.dtd">
<!-- Generated by graphviz version 8.1.0 (20230707.0739)
 -->
<!-- Title: stones Pages: 1 -->
<svg height="742pt" viewBox="0.00 0.00 239.0 742.0" width="239pt" xmlns="http://www.w3.org/2000/svg" xmlns:xlink="http://www.w3.org/1999/xlink">
 <g class="graph" id="graph0" transform="scale(1 1) rotate(0) translate(4 688)">
  <title>
   stones
  </title>
  <polygon fill="white" points="-4,4 -4,-688 185,-688 185,4 -4,4" stroke="none"/>
  <!-- Leetcode&#45;几何 -->
  <g class="node" id="node1">
   <title>
    Leetcode-几何
   </title>
   <g id="a_node1">
    <a target="_parent" xlink:href="https://leetcode-cn.com/tag/geometry" xlink:title="Leetcode-几何(9)">
     <polygon fill="orangered" points="151,-684 30,-684 30,-648 151,-648 151,-684" stroke="lightgrey"/>
     <text fill="white" font-family="Microsoft YaHei" font-size="14.00" text-anchor="middle" x="90.5" y="-662.83">
      Leetcode-几何(9)
     </text>
    </a>
   </g>
  </g>
  <!-- 892 -->
  <g class="node" id="node2">
   <title>
    892
   </title>
   <g id="a_node2">
    <a target="_parent" xlink:href="https://leetcode-cn.com/problems/surface-area-of-3d-shapes" xlink:title="892. 三维形体的表面积">
     <polygon fill="none" points="159.62,-612 21.38,-612 21.38,-576 159.62,-576 159.62,-612" stroke="greenyellow"/>
     <text font-family="Microsoft YaHei" font-size="12.00" text-anchor="middle" x="90.5" y="-591.23">
      892. 三维形体的表面积
     </text>
    </a>
   </g>
  </g>
  <!-- Leetcode&#45;几何&#45;&gt;892 -->
  <g class="edge" id="edge1">
   <title>
    Leetcode-几何-&gt;892
   </title>
   <path d="M90.5,-647.7C90.5,-640.24 90.5,-631.32 90.5,-622.97" fill="none" stroke="lightgrey"/>
   <polygon fill="lightgrey" points="94,-623.1 90.5,-613.1 87,-623.1 94,-623.1" stroke="lightgrey"/>
  </g>
  <!-- 1232 -->
  <g class="node" id="node3">
   <title>
    1232
   </title>
   <g id="a_node3">
    <a target="_parent" xlink:href="https://leetcode-cn.com/problems/check-if-it-is-a-straight-line" xlink:title="1232. 缀点成线">
     <polygon fill="none" points="139,-540 42,-540 42,-504 139,-504 139,-540" stroke="greenyellow"/>
     <text font-family="Microsoft YaHei" font-size="12.00" text-anchor="middle" x="90.5" y="-519.23">
      1232. 缀点成线
     </text>
    </a>
   </g>
  </g>
  <!-- 892&#45;&gt;1232 -->
  <g class="edge" id="edge2">
   <title>
    892-&gt;1232
   </title>
   <path d="M90.5,-575.7C90.5,-568.24 90.5,-559.32 90.5,-550.97" fill="none" stroke="lightgrey"/>
   <polygon fill="lightgrey" points="94,-551.1 90.5,-541.1 87,-551.1 94,-551.1" stroke="lightgrey"/>
  </g>
  <!-- 1266 -->
  <g class="node" id="node4">
   <title>
    1266
   </title>
   <g id="a_node4">
    <a target="_parent" xlink:href="https://leetcode-cn.com/problems/minimum-time-visiting-all-points" xlink:title="1266. 访问所有点的最小时间">
     <polygon fill="none" points="175,-468 6,-468 6,-432 175,-432 175,-468" stroke="greenyellow"/>
     <text font-family="Microsoft YaHei" font-size="12.00" text-anchor="middle" x="90.5" y="-447.23">
      1266. 访问所有点的最小时间
     </text>
    </a>
   </g>
  </g>
  <!-- 1232&#45;&gt;1266 -->
  <g class="edge" id="edge3">
   <title>
    1232-&gt;1266
   </title>
   <path d="M90.5,-503.7C90.5,-496.24 90.5,-487.32 90.5,-478.97" fill="none" stroke="lightgrey"/>
   <polygon fill="lightgrey" points="94,-479.1 90.5,-469.1 87,-479.1 94,-479.1" stroke="lightgrey"/>
  </g>
  <!-- 963 -->
  <g class="node" id="node5">
   <title>
    963
   </title>
   <g id="a_node5">
    <a target="_parent" xlink:href="https://leetcode-cn.com/problems/minimum-area-rectangle-ii" xlink:title="963. 最小面积矩形 II">
     <polygon fill="none" points="152.5,-396 28.5,-396 28.5,-360 152.5,-360 152.5,-396" stroke="orange"/>
     <text font-family="Microsoft YaHei" font-size="12.00" text-anchor="middle" x="90.5" y="-375.23">
      963. 最小面积矩形 II
     </text>
    </a>
   </g>
  </g>
  <!-- 1266&#45;&gt;963 -->
  <g class="edge" id="edge4">
   <title>
    1266-&gt;963
   </title>
   <path d="M90.5,-431.7C90.5,-424.24 90.5,-415.32 90.5,-406.97" fill="none" stroke="lightgrey"/>
   <polygon fill="lightgrey" points="94,-407.1 90.5,-397.1 87,-407.1 94,-407.1" stroke="lightgrey"/>
  </g>
  <!-- 1401 -->
  <g class="node" id="node6">
   <title>
    1401
   </title>
   <g id="a_node6">
    <a target="_parent" xlink:href="https://leetcode-cn.com/problems/circle-and-rectangle-overlapping" xlink:title="1401. 圆和矩形是否有重叠">
     <polygon fill="none" points="169,-324 12,-324 12,-288 169,-288 169,-324" stroke="orange"/>
     <text font-family="Microsoft YaHei" font-size="12.00" text-anchor="middle" x="90.5" y="-303.23">
      1401. 圆和矩形是否有重叠
     </text>
    </a>
   </g>
  </g>
  <!-- 963&#45;&gt;1401 -->
  <g class="edge" id="edge5">
   <title>
    963-&gt;1401
   </title>
   <path d="M90.5,-359.7C90.5,-352.24 90.5,-343.32 90.5,-334.97" fill="none" stroke="lightgrey"/>
   <polygon fill="lightgrey" points="94,-335.1 90.5,-325.1 87,-335.1 94,-335.1" stroke="lightgrey"/>
  </g>
  <!-- 587 -->
  <g class="node" id="node7">
   <title>
    587
   </title>
   <g id="a_node7">
    <a target="_parent" xlink:href="https://leetcode-cn.com/problems/erect-the-fence" xlink:title="587. 安装栅栏">
     <polygon fill="none" points="135.62,-252 45.38,-252 45.38,-216 135.62,-216 135.62,-252" stroke="red"/>
     <text font-family="Microsoft YaHei" font-size="12.00" text-anchor="middle" x="90.5" y="-231.22">
      587. 安装栅栏
     </text>
    </a>
   </g>
  </g>
  <!-- 1401&#45;&gt;587 -->
  <g class="edge" id="edge6">
   <title>
    1401-&gt;587
   </title>
   <path d="M90.5,-287.7C90.5,-280.24 90.5,-271.32 90.5,-262.97" fill="none" stroke="lightgrey"/>
   <polygon fill="lightgrey" points="94,-263.1 90.5,-253.1 87,-263.1 94,-263.1" stroke="lightgrey"/>
  </g>
  <!-- 1453 -->
  <g class="node" id="node8">
   <title>
    1453
   </title>
   <g id="a_node8">
    <a target="_parent" xlink:href="https://leetcode-cn.com/problems/maximum-number-of-darts-inside-of-a-circular-dartboard" xlink:title="1453. 圆形靶内的最大飞镖数量">
     <polygon fill="none" points="181,-180 0,-180 0,-144 181,-144 181,-180" stroke="red"/>
     <text font-family="Microsoft YaHei" font-size="12.00" text-anchor="middle" x="90.5" y="-159.22">
      1453. 圆形靶内的最大飞镖数量
     </text>
    </a>
   </g>
  </g>
  <!-- 587&#45;&gt;1453 -->
  <g class="edge" id="edge7">
   <title>
    587-&gt;1453
   </title>
   <path d="M90.5,-215.7C90.5,-208.24 90.5,-199.32 90.5,-190.97" fill="none" stroke="lightgrey"/>
   <polygon fill="lightgrey" points="94,-191.1 90.5,-181.1 87,-191.1 94,-191.1" stroke="lightgrey"/>
  </g>
  <!-- 1515 -->
  <g class="node" id="node9">
   <title>
    1515
   </title>
   <g id="a_node9">
    <a target="_parent" xlink:href="https://leetcode-cn.com/problems/best-position-for-a-service-centre" xlink:title="1515. 服务中心的最佳位置">
     <polygon fill="none" points="169,-108 12,-108 12,-72 169,-72 169,-108" stroke="red"/>
     <text font-family="Microsoft YaHei" font-size="12.00" text-anchor="middle" x="90.5" y="-87.22">
      1515. 服务中心的最佳位置
     </text>
    </a>
   </g>
  </g>
  <!-- 1453&#45;&gt;1515 -->
  <g class="edge" id="edge8">
   <title>
    1453-&gt;1515
   </title>
   <path d="M90.5,-143.7C90.5,-136.24 90.5,-127.32 90.5,-118.97" fill="none" stroke="lightgrey"/>
   <polygon fill="lightgrey" points="94,-119.1 90.5,-109.1 87,-119.1 94,-119.1" stroke="lightgrey"/>
  </g>
  <!-- 1610 -->
  <g class="node" id="node10">
   <title>
    1610
   </title>
   <g id="a_node10">
    <a target="_parent" xlink:href="https://leetcode-cn.com/problems/maximum-number-of-visible-points" xlink:title="1610. 可见点的最大数目">
     <polygon fill="none" points="163,-36 18,-36 18,0 163,0 163,-36" stroke="red"/>
     <text font-family="Microsoft YaHei" font-size="12.00" text-anchor="middle" x="90.5" y="-15.22">
      1610. 可见点的最大数目
     </text>
    </a>
   </g>
  </g>
  <!-- 1515&#45;&gt;1610 -->
  <g class="edge" id="edge9">
   <title>
    1515-&gt;1610
   </title>
   <path d="M90.5,-71.7C90.5,-64.24 90.5,-55.32 90.5,-46.97" fill="none" stroke="lightgrey"/>
   <polygon fill="lightgrey" points="94,-47.1 90.5,-37.1 87,-47.1 94,-47.1" stroke="lightgrey"/>
  </g>
  <g class="key">
   <defs>
    <filter height="1.2" id="solid" width="1.2" x="-0.1" y="-0.1">
     <feFlood flood-color="#ccff90" result="bg"/>
     <feMerge>
      <feMergeNode in="bg"/>
      <feMergeNode in="SourceGraphic"/>
     </feMerge>
    </filter>
   </defs>
   <text filter="url(#solid)" font-family="Microsoft YaHei" font-size="10.00" text-anchor="middle" x="90.5" y="-571.0">
    表面积
   </text>
  </g>
  <g class="key">
   <defs>
    <filter height="1.2" id="solid" width="1.2" x="-0.1" y="-0.1">
     <feFlood flood-color="#ccff90" result="bg"/>
     <feMerge>
      <feMergeNode in="bg"/>
      <feMergeNode in="SourceGraphic"/>
     </feMerge>
    </filter>
   </defs>
   <text filter="url(#solid)" font-family="Microsoft YaHei" font-size="10.00" text-anchor="middle" x="90.5" y="-499.0">
    点与线
   </text>
  </g>
  <g class="key">
   <defs>
    <filter height="1.2" id="solid" width="1.2" x="-0.1" y="-0.1">
     <feFlood flood-color="#ccff90" result="bg"/>
     <feMerge>
      <feMergeNode in="bg"/>
      <feMergeNode in="SourceGraphic"/>
     </feMerge>
    </filter>
   </defs>
   <text filter="url(#solid)" font-family="Microsoft YaHei" font-size="10.00" text-anchor="middle" x="90.5" y="-427.0">
    斜线与直线
   </text>
  </g>
  <g class="key">
   <defs>
    <filter height="1.2" id="solid" width="1.2" x="-0.1" y="-0.1">
     <feFlood flood-color="#ccff90" result="bg"/>
     <feMerge>
      <feMergeNode in="bg"/>
      <feMergeNode in="SourceGraphic"/>
     </feMerge>
    </filter>
   </defs>
   <text filter="url(#solid)" font-family="Microsoft YaHei" font-size="10.00" text-anchor="middle" x="90.5" y="-355.0">
    点与矩形
   </text>
  </g>
  <g class="key">
   <defs>
    <filter height="1.2" id="solid" width="1.2" x="-0.1" y="-0.1">
     <feFlood flood-color="#ccff90" result="bg"/>
     <feMerge>
      <feMergeNode in="bg"/>
      <feMergeNode in="SourceGraphic"/>
     </feMerge>
    </filter>
   </defs>
   <text filter="url(#solid)" font-family="Microsoft YaHei" font-size="10.00" text-anchor="middle" x="90.5" y="-283.0">
    圆与矩形
   </text>
  </g>
  <g class="key">
   <defs>
    <filter height="1.2" id="solid" width="1.2" x="-0.1" y="-0.1">
     <feFlood flood-color="#ccff90" result="bg"/>
     <feMerge>
      <feMergeNode in="bg"/>
      <feMergeNode in="SourceGraphic"/>
     </feMerge>
    </filter>
   </defs>
   <text filter="url(#solid)" font-family="Microsoft YaHei" font-size="10.00" text-anchor="middle" x="90.5" y="-211.0">
    多边形与凸包
   </text>
  </g>
  <g class="key">
   <defs>
    <filter height="1.2" id="solid" width="1.2" x="-0.1" y="-0.1">
     <feFlood flood-color="#ccff90" result="bg"/>
     <feMerge>
      <feMergeNode in="bg"/>
      <feMergeNode in="SourceGraphic"/>
     </feMerge>
    </filter>
   </defs>
   <text filter="url(#solid)" font-family="Microsoft YaHei" font-size="10.00" text-anchor="middle" x="90.5" y="-139.0">
    圆与点
   </text>
  </g>
  <g class="key">
   <defs>
    <filter height="1.2" id="solid" width="1.2" x="-0.1" y="-0.1">
     <feFlood flood-color="#ccff90" result="bg"/>
     <feMerge>
      <feMergeNode in="bg"/>
      <feMergeNode in="SourceGraphic"/>
     </feMerge>
    </filter>
   </defs>
   <text filter="url(#solid)" font-family="Microsoft YaHei" font-size="10.00" text-anchor="middle" x="90.5" y="-67.0">
    凸函数最值
   </text>
  </g>
  <g class="key">
   <defs>
    <filter height="1.2" id="solid" width="1.2" x="-0.1" y="-0.1">
     <feFlood flood-color="#ccff90" result="bg"/>
     <feMerge>
      <feMergeNode in="bg"/>
      <feMergeNode in="SourceGraphic"/>
     </feMerge>
    </filter>
   </defs>
   <text filter="url(#solid)" font-family="Microsoft YaHei" font-size="10.00" text-anchor="middle" x="90.5" y="5.0">
    扇形
   </text>
  </g>
 </g>
</svg>
