<?xml version="1.0" encoding="utf-8"?>
<!DOCTYPE svg PUBLIC "-//W3C//DTD SVG 1.1//EN" "http://www.w3.org/Graphics/SVG/1.1/DTD/svg11.dtd">
<!-- Generated by graphviz version 8.1.0 (20230707.0739)
 -->
<!-- Title: stones Pages: 1 -->
<svg height="382pt" viewBox="0.00 0.00 193.25 382.0" width="193pt" xmlns="http://www.w3.org/2000/svg" xmlns:xlink="http://www.w3.org/1999/xlink">
 <g class="graph" id="graph0" transform="scale(1 1) rotate(0) translate(4 328)">
  <title>
   stones
  </title>
  <polygon fill="white" points="-4,4 -4,-328 139.25,-328 139.25,4 -4,4" stroke="none"/>
  <!-- Leetcode&#45;并查集 -->
  <g class="node" id="node1">
   <title>
    Leetcode-并查集
   </title>
   <g id="a_node1">
    <a target="_parent" xlink:href="https://leetcode-cn.com/tag/union-find" xlink:title="Leetcode-并查集(3)">
     <polygon fill="orangered" points="135.25,-324 0,-324 0,-288 135.25,-288 135.25,-324" stroke="lightgrey"/>
     <text fill="white" font-family="Microsoft YaHei" font-size="14.00" text-anchor="middle" x="67.62" y="-302.82">
      Leetcode-并查集(3)
     </text>
    </a>
   </g>
  </g>
  <!-- 并查集与搜索 -->
  <g class="node" id="node2">
   <title>
    并查集与搜索
   </title>
   <polygon fill="lightslategray" points="118.75,-252 16.5,-252 16.5,-216 118.75,-216 118.75,-252" stroke="lightgrey"/>
   <text fill="white" font-family="Microsoft YaHei" font-size="12.00" text-anchor="middle" x="67.62" y="-231.22">
    并查集与搜索(3)
   </text>
  </g>
  <!-- Leetcode&#45;并查集&#45;&gt;并查集与搜索 -->
  <g class="edge" id="edge1">
   <title>
    Leetcode-并查集-&gt;并查集与搜索
   </title>
   <path d="M67.62,-287.7C67.62,-280.24 67.62,-271.32 67.62,-262.97" fill="none" stroke="lightgrey"/>
   <polygon fill="lightgrey" points="71.13,-263.1 67.62,-253.1 64.13,-263.1 71.13,-263.1" stroke="lightgrey"/>
  </g>
  <!-- 130 -->
  <g class="node" id="node3">
   <title>
    130
   </title>
   <g id="a_node3">
    <a target="_parent" xlink:href="https://leetcode-cn.com/problems/surrounded-regions" xlink:title="130. 被围绕的区域">
     <polygon fill="none" points="124.75,-180 10.5,-180 10.5,-144 124.75,-144 124.75,-180" stroke="orange"/>
     <text font-family="Microsoft YaHei" font-size="12.00" text-anchor="middle" x="67.62" y="-159.22">
      130. 被围绕的区域
     </text>
    </a>
   </g>
  </g>
  <!-- 并查集与搜索&#45;&gt;130 -->
  <g class="edge" id="edge2">
   <title>
    并查集与搜索-&gt;130
   </title>
   <path d="M67.62,-215.7C67.62,-208.24 67.62,-199.32 67.62,-190.97" fill="none" stroke="lightgrey"/>
   <polygon fill="lightgrey" points="71.13,-191.1 67.62,-181.1 64.13,-191.1 71.13,-191.1" stroke="lightgrey"/>
  </g>
  <!-- 200 -->
  <g class="node" id="node4">
   <title>
    200
   </title>
   <g id="a_node4">
    <a target="_parent" xlink:href="https://leetcode-cn.com/problems/number-of-islands" xlink:title="200. 岛屿数量">
     <polygon fill="none" points="112.75,-108 22.5,-108 22.5,-72 112.75,-72 112.75,-108" stroke="orange"/>
     <text font-family="Microsoft YaHei" font-size="12.00" text-anchor="middle" x="67.62" y="-87.22">
      200. 岛屿数量
     </text>
    </a>
   </g>
  </g>
  <!-- 130&#45;&gt;200 -->
  <g class="edge" id="edge3">
   <title>
    130-&gt;200
   </title>
   <path d="M67.62,-143.7C67.62,-136.24 67.62,-127.32 67.62,-118.97" fill="none" stroke="lightgrey"/>
   <polygon fill="lightgrey" points="71.13,-119.1 67.62,-109.1 64.13,-119.1 71.13,-119.1" stroke="lightgrey"/>
  </g>
  <!-- 547 -->
  <g class="node" id="node5">
   <title>
    547
   </title>
   <g id="a_node5">
    <a target="_parent" xlink:href="https://leetcode-cn.com/problems/number-of-provinces" xlink:title="547. 省份数量">
     <polygon fill="none" points="112.75,-36 22.5,-36 22.5,0 112.75,0 112.75,-36" stroke="orange"/>
     <text font-family="Microsoft YaHei" font-size="12.00" text-anchor="middle" x="67.62" y="-15.22">
      547. 省份数量
     </text>
    </a>
   </g>
  </g>
  <!-- 200&#45;&gt;547 -->
  <g class="edge" id="edge4">
   <title>
    200-&gt;547
   </title>
   <path d="M67.62,-71.7C67.62,-64.24 67.62,-55.32 67.62,-46.97" fill="none" stroke="lightgrey"/>
   <polygon fill="lightgrey" points="71.13,-47.1 67.62,-37.1 64.13,-47.1 71.13,-47.1" stroke="lightgrey"/>
  </g>
  <g class="key">
   <defs>
    <filter height="1.2" id="solid" width="1.2" x="-0.1" y="-0.1">
     <feFlood flood-color="#ccff90" result="bg"/>
     <feMerge>
      <feMergeNode in="bg"/>
      <feMergeNode in="SourceGraphic"/>
     </feMerge>
    </filter>
   </defs>
   <text filter="url(#solid)" font-family="Microsoft YaHei" font-size="10.00" text-anchor="middle" x="67.625" y="5.0">
    基本题
   </text>
  </g>
 </g>
</svg>
